<?xml version="1.0" encoding="UTF-8"?>
<svg width="608px" height="174px" viewBox="0 0 608 174" version="1.1" xmlns="http://www.w3.org/2000/svg" xmlns:xlink="http://www.w3.org/1999/xlink">
    <!-- Generator: Sketch 54.1 (76490) - https://sketchapp.com -->
    <title>Group 2</title>
    <desc>Created with Sketch.</desc>
    <defs>
        <rect id="path-1" x="0" y="0" width="174" height="174" rx="52"></rect>
        <circle id="path-3" cx="165" cy="96" r="109"></circle>
        <filter x="-3.2%" y="-2.3%" width="106.4%" height="106.4%" filterUnits="objectBoundingBox" id="filter-4">
            <feOffset dx="0" dy="2" in="SourceAlpha" result="shadowOffsetOuter1"></feOffset>
            <feGaussianBlur stdDeviation="2" in="shadowOffsetOuter1" result="shadowBlurOuter1"></feGaussianBlur>
            <feColorMatrix values="0 0 0 0 0   0 0 0 0 0   0 0 0 0 0  0 0 0 0.5 0" type="matrix" in="shadowBlurOuter1"></feColorMatrix>
        </filter>
        <circle id="path-5" cx="192" cy="117" r="109"></circle>
        <filter x="-3.2%" y="-2.3%" width="106.4%" height="106.4%" filterUnits="objectBoundingBox" id="filter-6">
            <feOffset dx="0" dy="2" in="SourceAlpha" result="shadowOffsetOuter1"></feOffset>
            <feGaussianBlur stdDeviation="2" in="shadowOffsetOuter1" result="shadowBlurOuter1"></feGaussianBlur>
            <feColorMatrix values="0 0 0 0 0   0 0 0 0 0   0 0 0 0 0  0 0 0 0.5 0" type="matrix" in="shadowBlurOuter1"></feColorMatrix>
        </filter>
        <circle id="path-7" cx="200" cy="141" r="94"></circle>
        <filter x="-3.7%" y="-2.7%" width="107.4%" height="107.4%" filterUnits="objectBoundingBox" id="filter-8">
            <feOffset dx="0" dy="2" in="SourceAlpha" result="shadowOffsetOuter1"></feOffset>
            <feGaussianBlur stdDeviation="2" in="shadowOffsetOuter1" result="shadowBlurOuter1"></feGaussianBlur>
            <feColorMatrix values="0 0 0 0 0   0 0 0 0 0   0 0 0 0 0  0 0 0 0.5 0" type="matrix" in="shadowBlurOuter1"></feColorMatrix>
        </filter>
        <circle id="path-9" cx="199.5" cy="160.5" r="72.5"></circle>
        <filter x="-4.8%" y="-3.4%" width="109.7%" height="109.7%" filterUnits="objectBoundingBox" id="filter-10">
            <feOffset dx="0" dy="2" in="SourceAlpha" result="shadowOffsetOuter1"></feOffset>
            <feGaussianBlur stdDeviation="2" in="shadowOffsetOuter1" result="shadowBlurOuter1"></feGaussianBlur>
            <feColorMatrix values="0 0 0 0 0   0 0 0 0 0   0 0 0 0 0  0 0 0 0.5 0" type="matrix" in="shadowBlurOuter1"></feColorMatrix>
        </filter>
    </defs>
    <g id="Page-1" stroke="none" stroke-width="1" fill="none" fill-rule="evenodd">
        <g id="Artboard-2-Copy-4" transform="translate(-65.000000, -81.000000)">
            <g id="Group-2" transform="translate(65.000000, 81.000000)">
                <g id="Group">
                    <mask id="mask-2" fill="white">
                        <use xlink:href="#path-1"></use>
                    </mask>
                    <use id="Rectangle-10" fill="#0D2944" xlink:href="#path-1"></use>
                    <circle id="Oval-5-Copy-4" fill="#066AB1" mask="url(#mask-2)" cx="141" cy="87" r="109"></circle>
                    <g id="Oval-5-Copy-3" mask="url(#mask-2)">
                        <use fill="black" fill-opacity="1" filter="url(#filter-4)" xlink:href="#path-3"></use>
                        <use fill="#0094FC" fill-rule="evenodd" xlink:href="#path-3"></use>
                    </g>
                    <g id="Oval-5-Copy-2" mask="url(#mask-2)">
                        <use fill="black" fill-opacity="1" filter="url(#filter-6)" xlink:href="#path-5"></use>
                        <use fill="#42BAFF" fill-rule="evenodd" xlink:href="#path-5"></use>
                    </g>
                    <g id="Oval-5-Copy" mask="url(#mask-2)">
                        <use fill="black" fill-opacity="1" filter="url(#filter-8)" xlink:href="#path-7"></use>
                        <use fill="#A1DDFF" fill-rule="evenodd" xlink:href="#path-7"></use>
                    </g>
                    <g id="Oval-5" mask="url(#mask-2)">
                        <use fill="black" fill-opacity="1" filter="url(#filter-10)" xlink:href="#path-9"></use>
                        <use fill="#DFF4FF" fill-rule="evenodd" xlink:href="#path-9"></use>
                    </g>
                </g>
                <path d="M236,121.8 C228.733297,121.8 223.150019,120.566679 219.25,118.1 C215.34998,115.633321 212.666674,111.950024 211.2,107.05 C209.733326,102.149975 209,95.600041 209,87.4 C209,77.799952 209.849991,70.466692 211.55,65.4 C213.250008,60.333308 215.899982,56.833343 219.5,54.9 C223.100018,52.966657 228.099968,52 234.5,52 C241.033366,52 248.166628,52.99999 255.9,55 L255.4,69 C249.133302,68.133329 244.066686,67.7 240.2,67.7 C236.666649,67.7 233.966676,68.2499945 232.1,69.35 C230.233324,70.4500055 228.950003,72.1833215 228.25,74.55 C227.549996,76.9166785 227.2,80.266645 227.2,84.6 C227.2,86.800011 227.233333,88.499994 227.3,89.7 C227.500001,94.633358 227.899997,98.199989 228.5,100.4 C229.100003,102.600011 230.166659,104.099996 231.7,104.9 C233.233341,105.700004 235.699983,106.1 239.1,106.1 C243.700023,106.1 249.133302,105.733337 255.4,105 L255.7,119.4 C248.499964,121.000008 241.933363,121.8 236,121.8 Z M302.471673,111.9 L282.871673,111.9 L281.571673,120.5 L263.571673,120.5 L276.471673,53.3 L308.871673,53.3 L321.771673,120.5 L303.771673,120.5 L302.471673,111.9 Z M294.871673,67.9 L290.471673,67.9 L285.871673,96.5 L299.471673,96.5 L294.871673,67.9 Z M371.843346,104.8 L371.843346,120.5 L332.743346,120.5 L332.743346,53.3 L350.543346,53.3 L350.543346,104.8 L371.843346,104.8 Z M387.115019,94.1 L366.815019,53.3 L386.515019,53.3 L395.915019,76.9 L405.315019,53.3 L425.015019,53.3 L405.015019,94.1 L405.015019,120.5 L387.115019,120.5 L387.115019,94.1 Z M434.286693,53.3 L459.086693,53.3 C467.420068,53.3 473.770004,55.366646 478.136693,59.5 C482.503381,63.633354 484.686693,69.733293 484.686693,77.8 C484.686693,85.866707 482.486715,92.0833115 478.086693,96.45 C473.686671,100.816688 467.353401,103 459.086693,103 L452.086693,103 L452.086693,120.5 L434.286693,120.5 L434.286693,53.3 Z M458.986693,87.9 C464.053385,87.9 466.586693,84.533367 466.586693,77.8 C466.586693,74.399983 465.970032,71.9833405 464.736693,70.55 C463.503353,69.1166595 461.586706,68.4 458.986693,68.4 L452.086693,68.4 L452.086693,87.9 L458.986693,87.9 Z M515.658366,121.9 C509.925004,121.9 503.391736,120.933343 496.058366,119 L492.458366,118.2 L494.258366,104.6 C503.05841,105.800006 509.858342,106.4 514.658366,106.4 C519.858392,106.4 522.458366,104.600018 522.458366,101 C522.458366,99.733327 521.875038,98.733337 520.708366,98 C519.541693,97.266663 517.825044,96.466671 515.558366,95.6 C514.091692,95.066664 513.025036,94.633335 512.358366,94.3 C504.824995,91.766654 499.475048,88.866683 496.308366,85.6 C493.141683,82.333317 491.558366,78.233358 491.558366,73.3 C491.558366,66.299965 493.691678,61.000018 497.958366,57.4 C502.225054,53.799982 508.024996,52 515.358366,52 C518.358381,52 521.208352,52.199998 523.908366,52.6 C526.608379,53.000002 531.55833,53.86666 538.758366,55.2 L537.358366,69 C528.691656,67.999995 522.025056,67.5 517.358366,67.5 C511.891672,67.5 509.158366,68.999985 509.158366,72 C509.158366,73.000005 509.825026,73.8499965 511.158366,74.55 C512.491706,75.2500035 514.591685,76.133328 517.458366,77.2 C520.391714,78.266672 522.291695,78.999998 523.158366,79.4 C527.558388,81.200009 530.958354,82.9499915 533.358366,84.65 C535.758378,86.3500085 537.491694,88.399988 538.558366,90.8 C539.625038,93.200012 540.158366,96.233315 540.158366,99.9 C540.158366,104.56669 539.075043,108.549983 536.908366,111.85 C534.741688,115.150016 531.808384,117.649991 528.108366,119.35 C524.408347,121.050008 520.258389,121.9 515.658366,121.9 Z M578.430039,121.8 C568.229988,121.8 560.880061,119.033361 556.380039,113.5 C551.880016,107.966639 549.630039,99.20006 549.630039,87.2 C549.630039,75.066606 551.86335,66.166695 556.330039,60.5 C560.796728,54.833305 568.163321,52 578.430039,52 C588.696757,52 596.06335,54.833305 600.530039,60.5 C604.996728,66.166695 607.230039,75.033273 607.230039,87.1 C607.230039,98.633391 605.030061,107.299971 600.630039,113.1 C596.230017,118.900029 588.830091,121.8 578.430039,121.8 Z M578.430039,106.4 C581.030052,106.4 583.080031,105.750006 584.580039,104.45 C586.080046,103.149993 587.163369,101.11668 587.830039,98.35 C588.496709,95.5833195 588.830039,91.833357 588.830039,87.1 C588.830039,80.033298 588.06338,74.9833485 586.530039,71.95 C584.996698,68.9166515 582.296725,67.4 578.430039,67.4 C574.63002,67.4 571.946713,68.933318 570.380039,72 C568.813364,75.066682 568.030039,80.133298 568.030039,87.2 C568.030039,93.466698 568.696699,98.233317 570.030039,101.5 C571.363379,104.766683 574.163351,106.4 578.430039,106.4 Z" id="CALYPSO" fill="#0D2944" fill-rule="nonzero"></path>
            </g>
        </g>
    </g>
</svg>