<?xml version="1.0" encoding="UTF-8"?>
<svg width="527px" height="376px" viewBox="0 0 527 376" version="1.1" xmlns="http://www.w3.org/2000/svg" xmlns:xlink="http://www.w3.org/1999/xlink">
    <!-- Generator: Sketch 54.1 (76490) - https://sketchapp.com -->
    <title>Group 15</title>
    <desc>Created with Sketch.</desc>
    <defs>
        <rect id="path-1" x="0" y="0" width="499" height="348" rx="21"></rect>
        <filter x="-5.4%" y="-4.3%" width="110.8%" height="115.5%" filterUnits="objectBoundingBox" id="filter-2">
            <feMorphology radius="5.5" operator="erode" in="SourceAlpha" result="shadowSpreadOuter1"></feMorphology>
            <feOffset dx="0" dy="12" in="shadowSpreadOuter1" result="shadowOffsetOuter1"></feOffset>
            <feGaussianBlur stdDeviation="12.5" in="shadowOffsetOuter1" result="shadowBlurOuter1"></feGaussianBlur>
            <feColorMatrix values="0 0 0 0 0.717421011   0 0 0 0 0.82813245   0 0 0 0 0.911166029  0 0 0 1 0" type="matrix" in="shadowBlurOuter1"></feColorMatrix>
        </filter>
    </defs>
    <g id="Page-1" stroke="none" stroke-width="1" fill="none" fill-rule="evenodd">
        <g id="Desktop-HD-Copy-2" transform="translate(-755.000000, -1478.000000)">
            <g id="Group-15" transform="translate(769.000000, 1480.000000)">
                <g id="Group-11">
                    <g id="Rectangle-12-Copy-3">
                        <use fill="black" fill-opacity="1" filter="url(#filter-2)" xlink:href="#path-1"></use>
                        <use fill="#FFFFFF" fill-rule="evenodd" xlink:href="#path-1"></use>
                    </g>
                    <rect id="Rectangle-15" fill="#0C2942" x="44" y="41" width="231" height="10" rx="5"></rect>
                    <path d="M61.2,90.84 L55.48,94.52 L52.96,90.4 L61.68,84.6 L66.72,84.6 L66.72,111 L61.2,111 L61.2,90.84 Z M83.6,111.4 C80.133316,111.4 77.5600084,110.313344 75.88,108.14 C74.1999916,105.966656 73.36,102.493357 73.36,97.72 C73.36,92.9466428 74.1999916,89.4733442 75.88,87.3 C77.5600084,85.1266558 80.133316,84.04 83.6,84.04 C87.066684,84.04 89.6399916,85.1266558 91.32,87.3 C93.0000084,89.4733442 93.84,92.9466428 93.84,97.72 C93.84,102.493357 93.0000084,105.966656 91.32,108.14 C89.6399916,110.313344 87.066684,111.4 83.6,111.4 Z M83.6,106.6 C84.6933388,106.6 85.57333,106.313336 86.24,105.74 C86.90667,105.166664 87.3933318,104.23334 87.7,102.94 C88.0066682,101.64666 88.16,99.9066776 88.16,97.72 C88.16,95.5333224 88.0066682,93.7933398 87.7,92.5 C87.3933318,91.2066602 86.90667,90.2733362 86.24,89.7 C85.57333,89.1266638 84.6933388,88.84 83.6,88.84 C82.5066612,88.84 81.62667,89.1266638 80.96,89.7 C80.29333,90.2733362 79.8066682,91.2066602 79.5,92.5 C79.1933318,93.7933398 79.04,95.5333224 79.04,97.72 C79.04,99.9066776 79.1933318,101.64666 79.5,102.94 C79.8066682,104.23334 80.29333,105.166664 80.96,105.74 C81.62667,106.313336 82.5066612,106.6 83.6,106.6 Z" id="10" fill="#0C2942" fill-rule="nonzero"></path>
                    <path d="M56.87,131.645 L56.87,134 L51.005,134 L51.005,123.92 L53.675,123.92 L53.675,131.645 L56.87,131.645 Z M60.905,134.195 C59.704994,134.195 58.8325027,133.900003 58.2875,133.31 C57.7424973,132.719997 57.47,131.755007 57.47,130.415 C57.47,129.044993 57.7574971,128.017503 58.3325,127.3325 C58.9075029,126.647497 59.7849941,126.305 60.965,126.305 C62.0550054,126.305 62.8924971,126.584997 63.4775,127.145 C64.0625029,127.705003 64.355,128.524995 64.355,129.605 L64.145,131.36 L60.095,131.36 C60.1250001,131.540001 60.1824996,131.67 60.2675,131.75 C60.3525004,131.83 60.4699993,131.8775 60.62,131.8925 C60.7700008,131.9075 61.0249982,131.915 61.385,131.915 C61.7450018,131.915 62.1724975,131.905 62.6675,131.885 C63.1625025,131.865 63.4999991,131.845 63.68,131.825 L64.085,131.78 L64.115,133.655 C63.0049944,134.015002 61.9350051,134.195 60.905,134.195 Z M61.805,129.41 C61.805,129.019998 61.7450006,128.757501 61.625,128.6225 C61.5049994,128.487499 61.2750017,128.42 60.935,128.42 C60.5949983,128.42 60.3700006,128.487499 60.26,128.6225 C60.1499994,128.757501 60.0900001,129.019998 60.08,129.41 L61.805,129.41 Z M65.57,126.5 L68.165,126.5 L68.165,126.845 C68.4850016,126.644999 68.7699987,126.505 69.02,126.425 C69.2700013,126.345 69.5399986,126.305 69.83,126.305 C70.7500046,126.305 71.414998,126.612497 71.825,127.2275 C72.235002,127.842503 72.44,128.719994 72.44,129.86 L72.44,134 L69.83,134 L69.83,129.95 C69.83,129.489998 69.7625007,129.155001 69.6275,128.945 C69.4924993,128.734999 69.2450018,128.63 68.885,128.63 L68.72,128.63 C68.6299996,128.63 68.485001,128.655 68.285,128.705 L68.18,128.705 L68.18,134 L65.57,134 L65.57,126.5 Z M76.58,134.195 C75.5399948,134.195 74.7925023,133.872503 74.3375,133.2275 C73.8824977,132.582497 73.655,131.620006 73.655,130.34 C73.655,128.949993 73.8999975,127.930003 74.39,127.28 C74.8800025,126.629997 75.6099952,126.305 76.58,126.305 C76.7900011,126.305 77.0224987,126.325 77.2775,126.365 C77.5325013,126.405 77.6999996,126.43 77.78,126.44 C77.8600004,126.46 77.9374996,126.475 78.0125,126.485 C78.0875004,126.495 78.1549997,126.505 78.215,126.515 L78.215,123.68 L80.825,123.68 L80.825,134 L78.23,134 L78.23,133.82 C77.819998,133.990001 77.5025011,134.095 77.2775,134.135 C77.0524989,134.175 76.8200012,134.195 76.58,134.195 Z M77.225,131.87 C77.2450001,131.87 77.2874997,131.875 77.3525,131.885 C77.4175003,131.895 77.4949996,131.9 77.585,131.9 C77.7050006,131.9 77.864999,131.885 78.065,131.855 L78.215,131.87 L78.215,128.675 C77.7749978,128.595 77.4100014,128.555 77.12,128.555 C76.8499987,128.555 76.6425007,128.687499 76.4975,128.9525 C76.3524993,129.217501 76.28,129.674997 76.28,130.325 C76.28,130.925003 76.3524993,131.332499 76.4975,131.5475 C76.6425007,131.762501 76.8849983,131.87 77.225,131.87 Z M85.43,134.195 C84.229994,134.195 83.3575027,133.900003 82.8125,133.31 C82.2674973,132.719997 81.995,131.755007 81.995,130.415 C81.995,129.044993 82.2824971,128.017503 82.8575,127.3325 C83.4325029,126.647497 84.3099941,126.305 85.49,126.305 C86.5800054,126.305 87.4174971,126.584997 88.0025,127.145 C88.5875029,127.705003 88.88,128.524995 88.88,129.605 L88.67,131.36 L84.62,131.36 C84.6500001,131.540001 84.7074996,131.67 84.7925,131.75 C84.8775004,131.83 84.9949992,131.8775 85.145,131.8925 C85.2950007,131.9075 85.5499982,131.915 85.91,131.915 C86.2700018,131.915 86.6974975,131.905 87.1925,131.885 C87.6875025,131.865 88.0249991,131.845 88.205,131.825 L88.61,131.78 L88.64,133.655 C87.5299945,134.015002 86.4600052,134.195 85.43,134.195 Z M86.33,129.41 C86.33,129.019998 86.2700006,128.757501 86.15,128.6225 C86.0299994,128.487499 85.8000017,128.42 85.46,128.42 C85.1199983,128.42 84.8950005,128.487499 84.785,128.6225 C84.6749995,128.757501 84.615,129.019998 84.605,129.41 L86.33,129.41 Z M90.095,126.5 L92.69,126.5 L92.69,127.145 C93.5600044,126.694998 94.2799971,126.415001 94.85,126.305 L94.85,128.93 C94.5399985,129 94.1550023,129.065 93.695,129.125 C93.6149996,129.135 93.3650021,129.175 92.945,129.245 L92.705,129.29 L92.705,134 L90.095,134 L90.095,126.5 Z M98.72,134.195 C97.9999964,134.195 97.1550048,134.095001 96.185,133.895 L95.69,133.79 L95.75,131.645 C96.9400059,131.795001 97.8049973,131.87 98.345,131.87 C98.9350029,131.87 99.23,131.825 99.23,131.735 C99.23,131.685 99.1700006,131.64 99.05,131.6 C98.9299994,131.56 98.7350014,131.52 98.465,131.48 L97.79,131.36 C97.0199961,131.229999 96.4550018,130.987502 96.095,130.6325 C95.7349982,130.277498 95.555,129.700004 95.555,128.9 C95.555,128.079996 95.8299972,127.445002 96.38,126.995 C96.9300027,126.544998 97.6649954,126.32 98.585,126.32 C99.195003,126.32 100.024995,126.434999 101.075,126.665 L101.615,126.755 L101.585,128.9 C100.294994,128.739999 99.4400021,128.66 99.02,128.66 C98.7299985,128.66 98.5100007,128.67 98.36,128.69 C98.2099992,128.71 98.135,128.755 98.135,128.825 C98.135,128.905 98.2174992,128.97 98.3825,129.02 C98.5475008,129.07 98.8149981,129.12 99.185,129.17 L99.74,129.26 C100.490004,129.400001 101.022498,129.652498 101.3375,130.0175 C101.652502,130.382502 101.81,130.924996 101.81,131.645 C101.81,133.345009 100.78001,134.195 98.72,134.195 Z" id="Lenders" fill="#4B4B4B" fill-rule="nonzero"></path>
                    <path d="M135.76,111.48 C133.67999,111.48 131.280014,111.133337 128.56,110.44 L127.28,110.12 L127.56,105.92 C130.493348,106.426669 132.866658,106.68 134.68,106.68 C136.226674,106.68 137.366663,106.406669 138.1,105.86 C138.833337,105.313331 139.2,104.493339 139.2,103.4 C139.2,102.279994 138.853337,101.420003 138.16,100.82 C137.466663,100.219997 136.533339,99.92 135.36,99.92 L130.04,99.92 L130.04,95.36 L135.36,95.36 C136.240004,95.36 137.019997,94.9866704 137.7,94.24 C138.380003,93.4933296 138.72,92.6266716 138.72,91.64 C138.72,90.706662 138.36667,90.0200022 137.66,89.58 C136.95333,89.1399978 135.840008,88.92 134.32,88.92 C133.06666,88.92 131.253345,89.1066648 128.88,89.48 L127.84,89.64 L127.48,85.56 C129.933346,84.5999952 132.626652,84.12 135.56,84.12 C138.626682,84.12 140.86666,84.686661 142.28,85.82 C143.69334,86.953339 144.4,88.7466544 144.4,91.2 C144.4,92.6400072 144.153336,93.8333286 143.66,94.78 C143.166664,95.7266714 142.386672,96.5733296 141.32,97.32 C142.253338,97.8266692 142.966664,98.3066644 143.46,98.76 C143.953336,99.2133356 144.313332,99.7799966 144.54,100.46 C144.766668,101.140003 144.88,102.039994 144.88,103.16 C144.88,105.986681 144.153341,108.079993 142.7,109.44 C141.246659,110.800007 138.933349,111.48 135.76,111.48 Z M149.64,104.36 L155.4,104.36 L155.4,111 L149.64,111 L149.64,104.36 Z M169,111.48 C167.853328,111.48 166.500008,111.366668 164.94,111.14 C163.379992,110.913332 162.093338,110.653335 161.08,110.36 L159.64,110 L160.24,105.92 C163.386682,106.426669 166.079989,106.68 168.32,106.68 C169.626673,106.68 170.626663,106.333337 171.32,105.64 C172.013337,104.946663 172.36,103.946673 172.36,102.64 C172.36,100.186654 171.240011,98.96 169,98.96 C167.159991,98.96 165.586673,99.1333316 164.28,99.48 L163.68,99.64 L160.4,98.88 L161.12,84.6 L177.24,84.6 L177.24,89.4 L165.44,89.4 L164.76,95.12 C166.413342,94.4799968 167.986659,94.16 169.48,94.16 C175.186695,94.16 178.04,96.8133068 178.04,102.12 C178.04,105.106682 177.253341,107.413325 175.68,109.04 C174.106659,110.666675 171.880014,111.48 169,111.48 Z M192.84,106.64 L181.64,106.64 L181.64,102.44 L188.16,84.6 L194.24,84.6 L187.16,101.84 L192.84,101.84 L192.84,94.44 L198.36,94.44 L198.36,101.84 L200.88,101.84 L200.88,106.64 L198.36,106.64 L198.36,111 L192.84,111 L192.84,106.64 Z M207.44,111.32 L216.84,83.04 L219.76,84.08 L210.36,112.28 L207.44,111.32 Z M207.8,95.76 C204.599984,95.76 203,93.8133528 203,89.92 C203,86.053314 204.599984,84.12 207.8,84.12 C211.000016,84.12 212.6,86.053314 212.6,89.92 C212.6,93.8133528 211.000016,95.76 207.8,95.76 Z M207.8,92.56 C208.38667,92.56 208.68,91.6800088 208.68,89.92 C208.68,88.186658 208.38667,87.32 207.8,87.32 C207.21333,87.32 206.92,88.186658 206.92,89.92 C206.92,91.6800088 207.21333,92.56 207.8,92.56 Z M219.48,111.48 C216.279984,111.48 214.68,109.533353 214.68,105.64 C214.68,101.773314 216.279984,99.84 219.48,99.84 C222.680016,99.84 224.28,101.773314 224.28,105.64 C224.28,109.533353 222.680016,111.48 219.48,111.48 Z M219.48,108.28 C220.06667,108.28 220.36,107.400009 220.36,105.64 C220.36,103.906658 220.06667,103.04 219.48,103.04 C218.89333,103.04 218.6,103.906658 218.6,105.64 C218.6,107.400009 218.89333,108.28 219.48,108.28 Z" id="3.54%" fill="#0C2942" fill-rule="nonzero"></path>
                    <path d="M146.015,135.71 L143.075,135.71 L142.88,137 L140.18,137 L142.115,126.92 L146.975,126.92 L148.91,137 L146.21,137 L146.015,135.71 Z M144.875,129.11 L144.215,129.11 L143.525,133.4 L145.565,133.4 L144.875,129.11 Z M149.045,129.5 L151.745,129.5 L152.585,134.795 L152.915,134.795 L153.8,129.5 L156.425,129.5 L154.835,137 L150.635,137 L149.045,129.5 Z M160.325,137.195 C159.124994,137.195 158.252503,136.900003 157.7075,136.31 C157.162497,135.719997 156.89,134.755007 156.89,133.415 C156.89,132.044993 157.177497,131.017503 157.7525,130.3325 C158.327503,129.647497 159.204994,129.305 160.385,129.305 C161.475005,129.305 162.312497,129.584997 162.8975,130.145 C163.482503,130.705003 163.775,131.524995 163.775,132.605 L163.565,134.36 L159.515,134.36 C159.545,134.540001 159.6025,134.67 159.6875,134.75 C159.7725,134.83 159.889999,134.8775 160.04,134.8925 C160.190001,134.9075 160.444998,134.915 160.805,134.915 C161.165002,134.915 161.592498,134.905 162.0875,134.885 C162.582502,134.865 162.919999,134.845 163.1,134.825 L163.505,134.78 L163.535,136.655 C162.424994,137.015002 161.355005,137.195 160.325,137.195 Z M161.225,132.41 C161.225,132.019998 161.165001,131.757501 161.045,131.6225 C160.924999,131.487499 160.695002,131.42 160.355,131.42 C160.014998,131.42 159.790001,131.487499 159.68,131.6225 C159.569999,131.757501 159.51,132.019998 159.5,132.41 L161.225,132.41 Z M164.99,129.5 L167.585,129.5 L167.585,130.145 C168.455004,129.694998 169.174997,129.415001 169.745,129.305 L169.745,131.93 C169.434998,132 169.050002,132.065 168.59,132.125 C168.51,132.135 168.260002,132.175 167.84,132.245 L167.6,132.29 L167.6,137 L164.99,137 L164.99,129.5 Z M172.79,137.195 C171.959996,137.195 171.342502,136.982502 170.9375,136.5575 C170.532498,136.132498 170.33,135.485004 170.33,134.615 C170.33,133.784996 170.552498,133.202502 170.9975,132.8675 C171.442502,132.532498 172.164995,132.34 173.165,132.29 L174.275,132.23 L174.275,131.885 C174.275,131.714999 174.2325,131.6075 174.1475,131.5625 C174.0625,131.5175 173.885001,131.495 173.615,131.495 L172.265,131.525 C171.404996,131.565 170.945,131.575 170.885,131.555 L170.825,129.8 C171.905005,129.469998 172.954995,129.305 173.975,129.305 C175.005005,129.305 175.744998,129.507498 176.195,129.9125 C176.645002,130.317502 176.87,130.974995 176.87,131.885 L176.87,134.525 C176.88,134.635001 176.89,134.757499 176.9,134.8925 C176.91,135.027501 176.93,135.1175 176.96,135.1625 C176.99,135.2075 177.045,135.24 177.125,135.26 L177.05,137.195 C176.429997,137.195 175.967502,137.1675 175.6625,137.1125 C175.357498,137.0575 175.025002,136.930001 174.665,136.73 C174.044997,137.040002 173.420003,137.195 172.79,137.195 Z M173.39,135.11 C173.550001,135.11 173.794998,135.085 174.125,135.035 L174.275,135.02 L174.275,133.985 L173.48,134.045 C173.309999,134.065 173.175001,134.125 173.075,134.225 C172.974999,134.325 172.925,134.464999 172.925,134.645 C172.925,134.955002 173.079998,135.11 173.39,135.11 Z M181.79,140.405 C180.739995,140.405 179.877503,140.257501 179.2025,139.9625 C178.527497,139.667499 178.19,139.180003 178.19,138.5 C178.19,138.189998 178.279999,137.877502 178.46,137.5625 C178.640001,137.247498 178.889998,136.960001 179.21,136.7 C178.779998,136.399999 178.565,136.025002 178.565,135.575 C178.565,135.404999 178.605,135.240001 178.685,135.08 C178.765,134.919999 178.934999,134.655002 179.195,134.285 C178.894998,133.984999 178.667501,133.662502 178.5125,133.3175 C178.357499,132.972498 178.28,132.575002 178.28,132.125 C178.28,131.184995 178.587497,130.487502 179.2025,130.0325 C179.817503,129.577498 180.629995,129.35 181.64,129.35 C182.040002,129.35 182.544997,129.414999 183.155,129.545 L185.69,129.455 L185.69,131.495 L184.775,131.36 C184.875,131.590001 184.935,131.7475 184.955,131.8325 C184.975,131.9175 184.985,132.054999 184.985,132.245 C184.985,133.155005 184.715003,133.804998 184.175,134.195 C183.634997,134.585002 182.825005,134.78 181.745,134.78 C181.454999,134.78 181.245001,134.76 181.115,134.72 C181.065,134.82 181.04,134.954999 181.04,135.125 C181.04,135.265001 181.124999,135.355 181.295,135.395 C181.465001,135.435 181.779998,135.465 182.24,135.485 C183.080004,135.515 183.744998,135.582499 184.235,135.6875 C184.725002,135.792501 185.104999,135.994999 185.375,136.295 C185.645001,136.595001 185.78,137.044997 185.78,137.645 C185.78,138.595005 185.442503,139.292498 184.7675,139.7375 C184.092497,140.182502 183.100007,140.405 181.79,140.405 Z M181.67,132.83 C181.900001,132.83 182.084999,132.757501 182.225,132.6125 C182.365001,132.467499 182.435,132.290001 182.435,132.08 C182.435,131.859999 182.365001,131.682501 182.225,131.5475 C182.084999,131.412499 181.895001,131.345 181.655,131.345 C181.424999,131.345 181.240001,131.409999 181.1,131.54 C180.959999,131.670001 180.89,131.845 180.89,132.065 C180.89,132.285001 180.962499,132.467499 181.1075,132.6125 C181.252501,132.757501 181.439999,132.83 181.67,132.83 Z M181.955,138.275 C182.335002,138.275 182.629999,138.245 182.84,138.185 C183.050001,138.125 183.155,138.05 183.155,137.96 C183.155,137.789999 183.010001,137.705 182.72,137.705 C182.62,137.705 182.525,137.71 182.435,137.72 C182.345,137.73 182.26,137.735 182.18,137.735 C182.12,137.735 182.075,137.73 182.045,137.72 L180.875,137.6 C180.865,137.69 180.845,137.78 180.815,137.87 L180.755,138.05 C180.755,138.11 180.869999,138.1625 181.1,138.2075 C181.330001,138.2525 181.614998,138.275 181.955,138.275 Z M189.83,137.195 C188.629994,137.195 187.757503,136.900003 187.2125,136.31 C186.667497,135.719997 186.395,134.755007 186.395,133.415 C186.395,132.044993 186.682497,131.017503 187.2575,130.3325 C187.832503,129.647497 188.709994,129.305 189.89,129.305 C190.980005,129.305 191.817497,129.584997 192.4025,130.145 C192.987503,130.705003 193.28,131.524995 193.28,132.605 L193.07,134.36 L189.02,134.36 C189.05,134.540001 189.1075,134.67 189.1925,134.75 C189.2775,134.83 189.394999,134.8775 189.545,134.8925 C189.695001,134.9075 189.949998,134.915 190.31,134.915 C190.670002,134.915 191.097498,134.905 191.5925,134.885 C192.087502,134.865 192.424999,134.845 192.605,134.825 L193.01,134.78 L193.04,136.655 C191.929994,137.015002 190.860005,137.195 189.83,137.195 Z M190.73,132.41 C190.73,132.019998 190.670001,131.757501 190.55,131.6225 C190.429999,131.487499 190.200002,131.42 189.86,131.42 C189.519998,131.42 189.295001,131.487499 189.185,131.6225 C189.074999,131.757501 189.015,132.019998 189.005,132.41 L190.73,132.41 Z M197.975,126.92 L200.645,126.92 L200.645,137 L197.975,137 L197.975,126.92 Z M202.67,126.92 L206.705,126.92 C207.965006,126.92 208.912497,127.214997 209.5475,127.805 C210.182503,128.395003 210.5,129.264994 210.5,130.415 C210.5,131.565006 210.090004,132.529996 209.27,133.31 L210.365,137 L207.44,137 L206.705,133.955 L205.34,133.955 L205.34,137 L202.67,137 L202.67,126.92 Z M206.75,131.675 C207.070002,131.675 207.317499,131.552501 207.4925,131.3075 C207.667501,131.062499 207.755,130.765002 207.755,130.415 C207.755,130.074998 207.657501,129.785001 207.4625,129.545 C207.267499,129.304999 207.015002,129.185 206.705,129.185 L205.34,129.185 L205.34,131.675 L206.75,131.675 Z" id="AverageIR" fill="#4B4B4B" fill-rule="nonzero"></path>
                    <path d="M297.76,111.48 C295.67999,111.48 293.280014,111.133337 290.56,110.44 L289.28,110.12 L289.56,105.92 C292.493348,106.426669 294.866658,106.68 296.68,106.68 C298.226674,106.68 299.366663,106.406669 300.1,105.86 C300.833337,105.313331 301.2,104.493339 301.2,103.4 C301.2,102.279994 300.853337,101.420003 300.16,100.82 C299.466663,100.219997 298.533339,99.92 297.36,99.92 L292.04,99.92 L292.04,95.36 L297.36,95.36 C298.240004,95.36 299.019997,94.9866704 299.7,94.24 C300.380003,93.4933296 300.72,92.6266716 300.72,91.64 C300.72,90.706662 300.36667,90.0200022 299.66,89.58 C298.95333,89.1399978 297.840008,88.92 296.32,88.92 C295.06666,88.92 293.253345,89.1066648 290.88,89.48 L289.84,89.64 L289.48,85.56 C291.933346,84.5999952 294.626652,84.12 297.56,84.12 C300.626682,84.12 302.86666,84.686661 304.28,85.82 C305.69334,86.953339 306.4,88.7466544 306.4,91.2 C306.4,92.6400072 306.153336,93.8333286 305.66,94.78 C305.166664,95.7266714 304.386672,96.5733296 303.32,97.32 C304.253338,97.8266692 304.966664,98.3066644 305.46,98.76 C305.953336,99.2133356 306.313332,99.7799966 306.54,100.46 C306.766668,101.140003 306.88,102.039994 306.88,103.16 C306.88,105.986681 306.153341,108.079993 304.7,109.44 C303.246659,110.800007 300.933349,111.48 297.76,111.48 Z" id="3" fill="#0C2942" fill-rule="nonzero"></path>
                    <path d="M238.065,137.21 C237.204996,137.21 236.225006,137.065001 235.125,136.775 L234.585,136.655 L234.855,134.615 C236.175007,134.795001 237.194996,134.885 237.915,134.885 C238.695004,134.885 239.085,134.615003 239.085,134.075 C239.085,133.884999 238.997501,133.735001 238.8225,133.625 C238.647499,133.514999 238.390002,133.395001 238.05,133.265 C237.829999,133.185 237.67,133.12 237.57,133.07 C236.439994,132.689998 235.637502,132.255002 235.1625,131.765 C234.687498,131.274998 234.45,130.660004 234.45,129.92 C234.45,128.869995 234.769997,128.075003 235.41,127.535 C236.050003,126.994997 236.919995,126.725 238.02,126.725 C238.470002,126.725 238.897498,126.755 239.3025,126.815 C239.707502,126.875 240.449995,127.004999 241.53,127.205 L241.32,129.275 C240.019993,129.124999 239.020004,129.05 238.32,129.05 C237.499996,129.05 237.09,129.274998 237.09,129.725 C237.09,129.875001 237.189999,130.002499 237.39,130.1075 C237.590001,130.212501 237.904998,130.344999 238.335,130.505 C238.775002,130.665001 239.059999,130.775 239.19,130.835 C239.850003,131.105001 240.359998,131.367499 240.72,131.6225 C241.080002,131.877501 241.339999,132.184998 241.5,132.545 C241.660001,132.905002 241.74,133.359997 241.74,133.91 C241.74,134.610004 241.577502,135.207498 241.2525,135.7025 C240.927498,136.197502 240.487503,136.572499 239.9325,136.8275 C239.377497,137.082501 238.755003,137.21 238.065,137.21 Z M244.965,137.195 C244.134996,137.195 243.517502,136.982502 243.1125,136.5575 C242.707498,136.132498 242.505,135.485004 242.505,134.615 C242.505,133.784996 242.727498,133.202502 243.1725,132.8675 C243.617502,132.532498 244.339995,132.34 245.34,132.29 L246.45,132.23 L246.45,131.885 C246.45,131.714999 246.4075,131.6075 246.3225,131.5625 C246.2375,131.5175 246.060001,131.495 245.79,131.495 L244.44,131.525 C243.579996,131.565 243.12,131.575 243.06,131.555 L243,129.8 C244.080005,129.469998 245.129995,129.305 246.15,129.305 C247.180005,129.305 247.919998,129.507498 248.37,129.9125 C248.820002,130.317502 249.045,130.974995 249.045,131.885 L249.045,134.525 C249.055,134.635001 249.065,134.757499 249.075,134.8925 C249.085,135.027501 249.105,135.1175 249.135,135.1625 C249.165,135.2075 249.22,135.24 249.3,135.26 L249.225,137.195 C248.604997,137.195 248.142502,137.1675 247.8375,137.1125 C247.532498,137.0575 247.200002,136.930001 246.84,136.73 C246.219997,137.040002 245.595003,137.195 244.965,137.195 Z M245.565,135.11 C245.725001,135.11 245.969998,135.085 246.3,135.035 L246.45,135.02 L246.45,133.985 L245.655,134.045 C245.484999,134.065 245.35,134.125 245.25,134.225 C245.15,134.325 245.1,134.464999 245.1,134.645 C245.1,134.955002 245.254998,135.11 245.565,135.11 Z M253.44,137.195 C252.819997,137.195 252.335002,137.097501 251.985,136.9025 C251.634998,136.707499 251.385001,136.400002 251.235,135.98 C251.084999,135.559998 251.01,134.990004 251.01,134.27 L251.01,131.705 L250.245,131.705 L250.245,129.5 L251.01,129.5 L251.01,127.55 L253.62,127.55 L253.62,129.5 L255.105,129.5 L255.105,131.705 L253.62,131.705 L253.62,134.435 C253.62,134.735002 253.729999,134.875 253.95,134.855 L254.97,134.87 L255.06,136.925 C254.629998,137.035001 254.312501,137.1075 254.1075,137.1425 C253.902499,137.1775 253.680001,137.195 253.44,137.195 Z M256.365,129.5 L258.975,129.5 L258.975,137 L256.365,137 L256.365,129.5 Z M256.38,126.515 L258.99,126.515 L258.99,129.02 L256.38,129.02 L256.38,126.515 Z M263.43,137.195 C262.709996,137.195 261.865005,137.095001 260.895,136.895 L260.4,136.79 L260.46,134.645 C261.650006,134.795001 262.514997,134.87 263.055,134.87 C263.645003,134.87 263.94,134.825 263.94,134.735 C263.94,134.685 263.880001,134.64 263.76,134.6 C263.639999,134.56 263.445001,134.52 263.175,134.48 L262.5,134.36 C261.729996,134.229999 261.165002,133.987502 260.805,133.6325 C260.444998,133.277498 260.265,132.700004 260.265,131.9 C260.265,131.079996 260.539997,130.445002 261.09,129.995 C261.640003,129.544998 262.374995,129.32 263.295,129.32 C263.905003,129.32 264.734995,129.434999 265.785,129.665 L266.325,129.755 L266.295,131.9 C265.004994,131.739999 264.150002,131.66 263.73,131.66 C263.439999,131.66 263.220001,131.67 263.07,131.69 C262.919999,131.71 262.845,131.755 262.845,131.825 C262.845,131.905 262.927499,131.97 263.0925,132.02 C263.257501,132.07 263.524998,132.12 263.895,132.17 L264.45,132.26 C265.200004,132.400001 265.732498,132.652498 266.0475,133.0175 C266.362502,133.382502 266.52,133.924996 266.52,134.645 C266.52,136.345009 265.49001,137.195 263.43,137.195 Z M268.185,131.705 L267.465,131.705 L267.465,129.5 L268.185,129.5 L268.185,129.395 C268.185,128.654996 268.257499,128.075002 268.4025,127.655 C268.547501,127.234998 268.784998,126.935001 269.115,126.755 C269.445002,126.574999 269.904997,126.485 270.495,126.485 L272.325,126.635 L272.295,128.84 C271.774997,128.79 271.400001,128.765 271.17,128.765 C271.059999,128.765 270.97,128.844999 270.9,129.005 C270.83,129.165001 270.795,129.299999 270.795,129.41 L270.795,129.5 L272.37,129.5 L272.37,131.705 L270.795,131.705 L270.795,137 L268.185,137 L268.185,131.705 Z M275.805,137 L274.185,137 L272.535,129.5 L275.085,129.5 L276.105,134.795 L276.36,134.795 L277.365,129.5 L279.915,129.5 L277.605,140.03 L275.07,140.03 L275.805,137 Z M286.14,137.195 C285.309996,137.195 284.692502,136.982502 284.2875,136.5575 C283.882498,136.132498 283.68,135.485004 283.68,134.615 C283.68,133.784996 283.902498,133.202502 284.3475,132.8675 C284.792502,132.532498 285.514995,132.34 286.515,132.29 L287.625,132.23 L287.625,131.885 C287.625,131.714999 287.5825,131.6075 287.4975,131.5625 C287.4125,131.5175 287.235001,131.495 286.965,131.495 L285.615,131.525 C284.754996,131.565 284.295,131.575 284.235,131.555 L284.175,129.8 C285.255005,129.469998 286.304995,129.305 287.325,129.305 C288.355005,129.305 289.094998,129.507498 289.545,129.9125 C289.995002,130.317502 290.22,130.974995 290.22,131.885 L290.22,134.525 C290.23,134.635001 290.24,134.757499 290.25,134.8925 C290.26,135.027501 290.28,135.1175 290.31,135.1625 C290.34,135.2075 290.395,135.24 290.475,135.26 L290.4,137.195 C289.779997,137.195 289.317502,137.1675 289.0125,137.1125 C288.707498,137.0575 288.375002,136.930001 288.015,136.73 C287.394997,137.040002 286.770003,137.195 286.14,137.195 Z M286.74,135.11 C286.900001,135.11 287.144998,135.085 287.475,135.035 L287.625,135.02 L287.625,133.985 L286.83,134.045 C286.659999,134.065 286.525,134.125 286.425,134.225 C286.324999,134.325 286.275,134.464999 286.275,134.645 C286.275,134.955002 286.429998,135.11 286.74,135.11 Z M292.035,126.68 L294.645,126.68 L294.645,137 L292.035,137 L292.035,126.68 Z M296.475,126.68 L299.085,126.68 L299.085,137 L296.475,137 L296.475,126.68 Z M306.675,137.195 C305.634995,137.195 304.887502,136.872503 304.4325,136.2275 C303.977498,135.582497 303.75,134.620006 303.75,133.34 C303.75,131.949993 303.994998,130.930003 304.485,130.28 C304.975002,129.629997 305.704995,129.305 306.675,129.305 C306.885001,129.305 307.117499,129.325 307.3725,129.365 C307.627501,129.405 307.795,129.43 307.875,129.44 C307.955,129.46 308.0325,129.475 308.1075,129.485 C308.1825,129.495 308.25,129.505 308.31,129.515 L308.31,126.68 L310.92,126.68 L310.92,137 L308.325,137 L308.325,136.82 C307.914998,136.990001 307.597501,137.095 307.3725,137.135 C307.147499,137.175 306.915001,137.195 306.675,137.195 Z M307.32,134.87 C307.34,134.87 307.3825,134.875 307.4475,134.885 C307.5125,134.895 307.59,134.9 307.68,134.9 C307.800001,134.9 307.959999,134.885 308.16,134.855 L308.31,134.87 L308.31,131.675 C307.869998,131.595 307.505001,131.555 307.215,131.555 C306.944999,131.555 306.737501,131.687499 306.5925,131.9525 C306.447499,132.217501 306.375,132.674997 306.375,133.325 C306.375,133.925003 306.447499,134.332499 306.5925,134.5475 C306.737501,134.762501 306.979998,134.87 307.32,134.87 Z M315.525,137.195 C314.324994,137.195 313.452503,136.900003 312.9075,136.31 C312.362497,135.719997 312.09,134.755007 312.09,133.415 C312.09,132.044993 312.377497,131.017503 312.9525,130.3325 C313.527503,129.647497 314.404994,129.305 315.585,129.305 C316.675005,129.305 317.512497,129.584997 318.0975,130.145 C318.682503,130.705003 318.975,131.524995 318.975,132.605 L318.765,134.36 L314.715,134.36 C314.745,134.540001 314.8025,134.67 314.8875,134.75 C314.9725,134.83 315.089999,134.8775 315.24,134.8925 C315.390001,134.9075 315.644998,134.915 316.005,134.915 C316.365002,134.915 316.792498,134.905 317.2875,134.885 C317.782502,134.865 318.119999,134.845 318.3,134.825 L318.705,134.78 L318.735,136.655 C317.624994,137.015002 316.555005,137.195 315.525,137.195 Z M316.425,132.41 C316.425,132.019998 316.365001,131.757501 316.245,131.6225 C316.124999,131.487499 315.895002,131.42 315.555,131.42 C315.214998,131.42 314.990001,131.487499 314.88,131.6225 C314.769999,131.757501 314.71,132.019998 314.7,132.41 L316.425,132.41 Z M320.19,129.5 L322.785,129.5 L322.785,129.845 C323.145002,129.644999 323.432499,129.505 323.6475,129.425 C323.862501,129.345 324.089999,129.305 324.33,129.305 C324.630001,129.305 324.942498,129.359999 325.2675,129.47 C325.592502,129.580001 325.869999,129.744999 326.1,129.965 C326.620003,129.714999 327.062498,129.5425 327.4275,129.4475 C327.792502,129.3525 328.159998,129.305 328.53,129.305 C329.480005,129.305 330.167498,129.594997 330.5925,130.175 C331.017502,130.755003 331.23,131.649994 331.23,132.86 L331.23,137 L328.62,137 L328.62,132.95 C328.62,132.529998 328.562501,132.205001 328.4475,131.975 C328.332499,131.744999 328.135001,131.63 327.855,131.63 C327.835,131.63 327.775,131.6325 327.675,131.6375 C327.574999,131.6425 327.415001,131.665 327.195,131.705 L327.015,131.735 L326.985,133.13 L326.985,137 L324.375,137 L324.375,133.16 C324.375,132.749998 324.355,132.440001 324.315,132.23 C324.275,132.019999 324.197501,131.8675 324.0825,131.7725 C323.967499,131.6775 323.790001,131.63 323.55,131.63 C323.369999,131.63 323.160001,131.655 322.92,131.705 L322.8,131.705 L322.8,137 L320.19,137 L320.19,129.5 Z M334.77,137.195 C333.939996,137.195 333.322502,136.982502 332.9175,136.5575 C332.512498,136.132498 332.31,135.485004 332.31,134.615 C332.31,133.784996 332.532498,133.202502 332.9775,132.8675 C333.422502,132.532498 334.144995,132.34 335.145,132.29 L336.255,132.23 L336.255,131.885 C336.255,131.714999 336.2125,131.6075 336.1275,131.5625 C336.0425,131.5175 335.865001,131.495 335.595,131.495 L334.245,131.525 C333.384996,131.565 332.925,131.575 332.865,131.555 L332.805,129.8 C333.885005,129.469998 334.934995,129.305 335.955,129.305 C336.985005,129.305 337.724998,129.507498 338.175,129.9125 C338.625002,130.317502 338.85,130.974995 338.85,131.885 L338.85,134.525 C338.86,134.635001 338.87,134.757499 338.88,134.8925 C338.89,135.027501 338.91,135.1175 338.94,135.1625 C338.97,135.2075 339.025,135.24 339.105,135.26 L339.03,137.195 C338.409997,137.195 337.947502,137.1675 337.6425,137.1125 C337.337498,137.0575 337.005002,136.930001 336.645,136.73 C336.024997,137.040002 335.400003,137.195 334.77,137.195 Z M335.37,135.11 C335.530001,135.11 335.774998,135.085 336.105,135.035 L336.255,135.02 L336.255,133.985 L335.46,134.045 C335.289999,134.065 335.155,134.125 335.055,134.225 C334.954999,134.325 334.905,134.464999 334.905,134.645 C334.905,134.955002 335.059998,135.11 335.37,135.11 Z M340.575,129.5 L343.17,129.5 L343.17,129.845 C343.490002,129.644999 343.774999,129.505 344.025,129.425 C344.275001,129.345 344.544999,129.305 344.835,129.305 C345.755005,129.305 346.419998,129.612497 346.83,130.2275 C347.240002,130.842503 347.445,131.719994 347.445,132.86 L347.445,137 L344.835,137 L344.835,132.95 C344.835,132.489998 344.767501,132.155001 344.6325,131.945 C344.497499,131.734999 344.250002,131.63 343.89,131.63 L343.725,131.63 C343.635,131.63 343.490001,131.655 343.29,131.705 L343.185,131.705 L343.185,137 L340.575,137 L340.575,129.5 Z M351.585,137.195 C350.544995,137.195 349.797502,136.872503 349.3425,136.2275 C348.887498,135.582497 348.66,134.620006 348.66,133.34 C348.66,131.949993 348.904998,130.930003 349.395,130.28 C349.885002,129.629997 350.614995,129.305 351.585,129.305 C351.795001,129.305 352.027499,129.325 352.2825,129.365 C352.537501,129.405 352.705,129.43 352.785,129.44 C352.865,129.46 352.9425,129.475 353.0175,129.485 C353.0925,129.495 353.16,129.505 353.22,129.515 L353.22,126.68 L355.83,126.68 L355.83,137 L353.235,137 L353.235,136.82 C352.824998,136.990001 352.507501,137.095 352.2825,137.135 C352.057499,137.175 351.825001,137.195 351.585,137.195 Z M352.23,134.87 C352.25,134.87 352.2925,134.875 352.3575,134.885 C352.4225,134.895 352.5,134.9 352.59,134.9 C352.710001,134.9 352.869999,134.885 353.07,134.855 L353.22,134.87 L353.22,131.675 C352.779998,131.595 352.415001,131.555 352.125,131.555 C351.854999,131.555 351.647501,131.687499 351.5025,131.9525 C351.357499,132.217501 351.285,132.674997 351.285,133.325 C351.285,133.925003 351.357499,134.332499 351.5025,134.5475 C351.647501,134.762501 351.889998,134.87 352.23,134.87 Z M360.255,137.195 C359.534996,137.195 358.690005,137.095001 357.72,136.895 L357.225,136.79 L357.285,134.645 C358.475006,134.795001 359.339997,134.87 359.88,134.87 C360.470003,134.87 360.765,134.825 360.765,134.735 C360.765,134.685 360.705001,134.64 360.585,134.6 C360.464999,134.56 360.270001,134.52 360,134.48 L359.325,134.36 C358.554996,134.229999 357.990002,133.987502 357.63,133.6325 C357.269998,133.277498 357.09,132.700004 357.09,131.9 C357.09,131.079996 357.364997,130.445002 357.915,129.995 C358.465003,129.544998 359.199995,129.32 360.12,129.32 C360.730003,129.32 361.559995,129.434999 362.61,129.665 L363.15,129.755 L363.12,131.9 C361.829994,131.739999 360.975002,131.66 360.555,131.66 C360.264999,131.66 360.045001,131.67 359.895,131.69 C359.744999,131.71 359.67,131.755 359.67,131.825 C359.67,131.905 359.752499,131.97 359.9175,132.02 C360.082501,132.07 360.349998,132.12 360.72,132.17 L361.275,132.26 C362.025004,132.400001 362.557498,132.652498 362.8725,133.0175 C363.187502,133.382502 363.345,133.924996 363.345,134.645 C363.345,136.345009 362.31501,137.195 360.255,137.195 Z" id="Satisfyalldemands" fill="#4B4B4B" fill-rule="nonzero"></path>
                    <g id="Group-8-Copy-9" transform="translate(50.000000, 268.000000)">
                        <rect id="Rectangle-16" fill="#EDF7FE" x="0" y="0" width="389" height="39" rx="6"></rect>
                        <rect id="Rectangle-17" fill="#D1D1D1" x="27" y="15" width="86" height="9" rx="4.5"></rect>
                        <rect id="Rectangle-17-Copy" fill="#D1D1D1" x="133" y="15" width="43" height="9" rx="4.5"></rect>
                        <circle id="Oval-7" fill="#B8E986" cx="350" cy="20" r="11"></circle>
                    </g>
                    <g id="Group-8-Copy" transform="translate(50.000000, 214.000000)">
                        <rect id="Rectangle-16" fill="#EDF7FE" x="0" y="0" width="389" height="39" rx="6"></rect>
                        <rect id="Rectangle-17" fill="#D1D1D1" x="27" y="15" width="86" height="9" rx="4.5"></rect>
                        <rect id="Rectangle-17-Copy" fill="#D1D1D1" x="133" y="15" width="43" height="9" rx="4.5"></rect>
                        <circle id="Oval-7" fill="#F99EA9" cx="350" cy="20" r="11"></circle>
                    </g>
                    <g id="Group-8" transform="translate(50.000000, 160.000000)">
                        <rect id="Rectangle-16" fill="#EDF7FE" x="0" y="0" width="389" height="39" rx="6"></rect>
                        <rect id="Rectangle-17" fill="#D1D1D1" x="27" y="15" width="86" height="9" rx="4.5"></rect>
                        <rect id="Rectangle-17-Copy" fill="#D1D1D1" x="133" y="15" width="43" height="9" rx="4.5"></rect>
                        <circle id="Oval-7" fill="#AAE986" cx="350" cy="20" r="11"></circle>
                    </g>
                </g>
                <circle id="Oval" fill="#3D95F4" cx="420.5" cy="100.5" r="19.5"></circle>
                <g id="send-24px" transform="translate(411.000000, 89.000000)">
                    <polygon id="Path" points="0 0 23 0 23 23 0 23"></polygon>
                    <polygon id="Path" fill="#FFFFFF" fill-rule="nonzero" points="4.00761905 19 20 12 4.00761905 5 4 10.4444444 15.4285714 12 4 13.5555556"></polygon>
                </g>
            </g>
        </g>
    </g>
</svg>