<?xml version="1.0" encoding="UTF-8"?>
<svg width="527px" height="376px" viewBox="0 0 527 376" version="1.1" xmlns="http://www.w3.org/2000/svg" xmlns:xlink="http://www.w3.org/1999/xlink">
    <!-- Generator: Sketch 54.1 (76490) - https://sketchapp.com -->
    <title>Group 14</title>
    <desc>Created with Sketch.</desc>
    <defs>
        <rect id="path-1" x="0" y="0" width="499" height="348" rx="21"></rect>
        <filter x="-5.4%" y="-4.3%" width="110.8%" height="115.5%" filterUnits="objectBoundingBox" id="filter-2">
            <feMorphology radius="5.5" operator="erode" in="SourceAlpha" result="shadowSpreadOuter1"></feMorphology>
            <feOffset dx="0" dy="12" in="shadowSpreadOuter1" result="shadowOffsetOuter1"></feOffset>
            <feGaussianBlur stdDeviation="12.5" in="shadowOffsetOuter1" result="shadowBlurOuter1"></feGaussianBlur>
            <feColorMatrix values="0 0 0 0 0.717421011   0 0 0 0 0.82813245   0 0 0 0 0.911166029  0 0 0 1 0" type="matrix" in="shadowBlurOuter1"></feColorMatrix>
        </filter>
    </defs>
    <g id="Page-1" stroke="none" stroke-width="1" fill="none" fill-rule="evenodd">
        <g id="Desktop-HD-Copy-2" transform="translate(-124.000000, -1893.000000)">
            <g id="Group-14" transform="translate(138.000000, 1895.000000)">
                <g id="Group-10">
                    <g id="Rectangle-12-Copy-3">
                        <use fill="black" fill-opacity="1" filter="url(#filter-2)" xlink:href="#path-1"></use>
                        <use fill="#FFFFFF" fill-rule="evenodd" xlink:href="#path-1"></use>
                    </g>
                    <rect id="Rectangle-3-Copy-13" fill="#F4F4F4" x="58" y="192" width="120" height="10" rx="5"></rect>
                    <rect id="Rectangle-3-Copy-12" fill="#F4F4F4" x="58" y="167" width="326" height="10" rx="5"></rect>
                    <rect id="Rectangle-3-Copy-11" fill="#F4F4F4" x="58" y="142" width="363" height="10" rx="5"></rect>
                    <rect id="Rectangle-3-Copy-10" fill="#F4F4F4" x="58" y="117" width="331" height="10" rx="5"></rect>
                    <rect id="Rectangle-3-Copy-9" fill="#F4F4F4" x="58" y="92" width="378" height="10" rx="5"></rect>
                    <path d="M69.45,59.075 L69.45,63 L59.675,63 L59.675,46.2 L64.125,46.2 L64.125,59.075 L69.45,59.075 Z M76.175,63.325 C74.17499,63.325 72.7208379,62.8333382 71.8125,61.85 C70.9041621,60.8666617 70.45,59.2583445 70.45,57.025 C70.45,54.7416553 70.9291619,53.0291724 71.8875,51.8875 C72.8458381,50.7458276 74.3083235,50.175 76.275,50.175 C78.0916758,50.175 79.4874951,50.641662 80.4625,51.575 C81.4375049,52.508338 81.925,53.874991 81.925,55.675 L81.575,58.6 L74.825,58.6 C74.8750002,58.9000015 74.9708326,59.116666 75.1125,59.25 C75.2541674,59.383334 75.4499987,59.4624999 75.7,59.4875 C75.9500012,59.5125001 76.374997,59.525 76.975,59.525 C77.575003,59.525 78.2874959,59.5083335 79.1125,59.475 C79.9375041,59.4416665 80.4999985,59.4083335 80.8,59.375 L81.475,59.3 L81.525,62.425 C79.6749908,63.025003 77.8916752,63.325 76.175,63.325 Z M77.675,55.35 C77.675,54.6999967 77.575001,54.2625011 77.375,54.0375 C77.174999,53.8124989 76.7916695,53.7 76.225,53.7 C75.6583305,53.7 75.2833342,53.8124989 75.1,54.0375 C74.9166657,54.2625011 74.8166667,54.6999967 74.8,55.35 L77.675,55.35 Z M83.95,50.5 L88.275,50.5 L88.275,51.075 C88.808336,50.741665 89.2833313,50.508334 89.7,50.375 C90.1166688,50.241666 90.5666643,50.175 91.05,50.175 C92.583341,50.175 93.6916633,50.6874949 94.375,51.7125 C95.0583367,52.7375051 95.4,54.1999905 95.4,56.1 L95.4,63 L91.05,63 L91.05,56.25 C91.05,55.4833295 90.9375011,54.9250017 90.7125,54.575 C90.4874989,54.2249982 90.075003,54.05 89.475,54.05 L89.2,54.05 C89.0499992,54.05 88.808335,54.0916662 88.475,54.175 L88.3,54.175 L88.3,63 L83.95,63 L83.95,50.5 Z M102.3,63.325 C100.566658,63.325 99.3208371,62.7875054 98.5625,61.7125 C97.8041629,60.6374946 97.425,59.033344 97.425,56.9 C97.425,54.5833217 97.8333293,52.8833388 98.65,51.8 C99.4666708,50.7166613 100.683325,50.175 102.3,50.175 C102.650002,50.175 103.037498,50.208333 103.4625,50.275 C103.887502,50.341667 104.166666,50.3833332 104.3,50.4 C104.433334,50.4333335 104.562499,50.4583333 104.6875,50.475 C104.812501,50.4916668 104.925,50.5083332 105.025,50.525 L105.025,45.8 L109.375,45.8 L109.375,63 L105.05,63 L105.05,62.7 C104.366663,62.9833347 103.837502,63.158333 103.4625,63.225 C103.087498,63.291667 102.700002,63.325 102.3,63.325 Z M103.375,59.45 C103.408333,59.45 103.479166,59.4583332 103.5875,59.475 C103.695834,59.4916668 103.824999,59.5 103.975,59.5 C104.175001,59.5 104.441665,59.4750003 104.775,59.425 L105.025,59.45 L105.025,54.125 C104.291663,53.991666 103.683336,53.925 103.2,53.925 C102.749998,53.925 102.404168,54.1458311 102.1625,54.5875 C101.920832,55.0291689 101.8,55.7916613 101.8,56.875 C101.8,57.875005 101.920832,58.5541649 102.1625,58.9125 C102.404168,59.2708351 102.808331,59.45 103.375,59.45 Z M117.05,63.325 C115.04999,63.325 113.595838,62.8333382 112.6875,61.85 C111.779162,60.8666617 111.325,59.2583445 111.325,57.025 C111.325,54.7416553 111.804162,53.0291724 112.7625,51.8875 C113.720838,50.7458276 115.183324,50.175 117.15,50.175 C118.966676,50.175 120.362495,50.641662 121.3375,51.575 C122.312505,52.508338 122.8,53.874991 122.8,55.675 L122.45,58.6 L115.7,58.6 C115.75,58.9000015 115.845833,59.116666 115.9875,59.25 C116.129167,59.383334 116.324999,59.4624999 116.575,59.4875 C116.825001,59.5125001 117.249997,59.525 117.85,59.525 C118.450003,59.525 119.162496,59.5083335 119.9875,59.475 C120.812504,59.4416665 121.374999,59.4083335 121.675,59.375 L122.35,59.3 L122.4,62.425 C120.549991,63.025003 118.766675,63.325 117.05,63.325 Z M118.55,55.35 C118.55,54.6999967 118.450001,54.2625011 118.25,54.0375 C118.049999,53.8124989 117.66667,53.7 117.1,53.7 C116.533331,53.7 116.158334,53.8124989 115.975,54.0375 C115.791666,54.2625011 115.691667,54.6999967 115.675,55.35 L118.55,55.35 Z M124.825,50.5 L129.15,50.5 L129.15,51.575 C130.600007,50.8249962 131.799995,50.3583342 132.75,50.175 L132.75,54.55 C132.233331,54.6666673 131.591671,54.7749995 130.825,54.875 C130.691666,54.8916667 130.275003,54.9583327 129.575,55.075 L129.175,55.15 L129.175,63 L124.825,63 L124.825,50.5 Z M148.7,60.85 L143.8,60.85 L143.475,63 L138.975,63 L142.2,46.2 L150.3,46.2 L153.525,63 L149.025,63 L148.7,60.85 Z M146.8,49.85 L145.7,49.85 L144.55,57 L147.95,57 L146.8,49.85 Z" id="LenderA" fill="#0D2944" fill-rule="nonzero"></path>
                </g>
                <rect id="Rectangle-14" fill="#3D95F4" x="298" y="248" width="135" height="49" rx="8"></rect>
                <path d="M342.4,277.54 L337.64,277.54 L337.1,280 L334.34,280 L337.4,266.4 L342.64,266.4 L345.7,280 L342.94,280 L342.4,277.54 Z M340.5,268.68 L339.54,268.68 L338.16,275.14 L341.88,275.14 L340.5,268.68 Z M352.14,280.24 C350.699993,280.24 349.593337,279.986669 348.82,279.48 C348.046663,278.973331 347.516668,278.223338 347.23,277.23 C346.943332,276.236662 346.8,274.913342 346.8,273.26 C346.8,271.446658 346.956665,270.033338 347.27,269.02 C347.583335,268.006662 348.106663,267.276669 348.84,266.83 C349.573337,266.383331 350.599993,266.16 351.92,266.16 C353.133339,266.16 354.486659,266.339998 355.98,266.7 L355.9,268.9 C354.579993,268.699999 353.506671,268.6 352.68,268.6 C351.839996,268.6 351.206669,268.733332 350.78,269 C350.353331,269.266668 350.056668,269.70333 349.89,270.31 C349.723333,270.91667 349.64,271.773328 349.64,272.88 L349.64,273.62 C349.666667,274.766672 349.749999,275.623331 349.89,276.19 C350.030001,276.756669 350.306665,277.166665 350.72,277.42 C351.133335,277.673335 351.766662,277.8 352.62,277.8 C353.526671,277.8 354.619994,277.706668 355.9,277.52 L355.96,279.78 C354.506659,280.086668 353.233339,280.24 352.14,280.24 Z M363,280.24 C361.559993,280.24 360.453337,279.986669 359.68,279.48 C358.906663,278.973331 358.376668,278.223338 358.09,277.23 C357.803332,276.236662 357.66,274.913342 357.66,273.26 C357.66,271.446658 357.816665,270.033338 358.13,269.02 C358.443335,268.006662 358.966663,267.276669 359.7,266.83 C360.433337,266.383331 361.459993,266.16 362.78,266.16 C363.993339,266.16 365.346659,266.339998 366.84,266.7 L366.76,268.9 C365.439993,268.699999 364.366671,268.6 363.54,268.6 C362.699996,268.6 362.066669,268.733332 361.64,269 C361.213331,269.266668 360.916668,269.70333 360.75,270.31 C360.583332,270.91667 360.5,271.773328 360.5,272.88 L360.5,273.62 C360.526667,274.766672 360.609999,275.623331 360.75,276.19 C360.890001,276.756669 361.166665,277.166665 361.58,277.42 C361.993335,277.673335 362.626662,277.8 363.48,277.8 C364.386671,277.8 365.479994,277.706668 366.76,277.52 L366.82,279.78 C365.366659,280.086668 364.093339,280.24 363,280.24 Z M371.82,268.8 L371.82,271.98 L376.66,271.98 L376.66,274.34 L371.82,274.34 L371.82,277.6 L377.86,277.6 L377.86,280 L369.06,280 L369.06,266.4 L377.86,266.4 L377.86,268.8 L371.82,268.8 Z M380.14,266.4 L385.14,266.4 C388.366683,266.4 389.98,267.973318 389.98,271.12 C389.98,272.720008 389.570004,273.939996 388.75,274.78 C387.929996,275.620004 386.726675,276.04 385.14,276.04 L382.9,276.04 L382.9,280 L380.14,280 L380.14,266.4 Z M385.12,273.68 C386.49334,273.68 387.18,272.826675 387.18,271.12 C387.18,270.293329 387.016668,269.693335 386.69,269.32 C386.363332,268.946665 385.840004,268.76 385.12,268.76 L382.9,268.76 L382.9,273.68 L385.12,273.68 Z M393.6,268.84 L389.96,268.84 L389.96,266.4 L399.96,266.4 L399.96,268.84 L396.36,268.84 L396.36,280 L393.6,280 L393.6,268.84 Z" id="ACCEPT" fill="#FFFFFF" fill-rule="nonzero"></path>
            </g>
        </g>
    </g>
</svg>