<?xml version="1.0" encoding="UTF-8"?>
<svg width="571px" height="466px" viewBox="0 0 571 466" version="1.1" xmlns="http://www.w3.org/2000/svg" xmlns:xlink="http://www.w3.org/1999/xlink">
    <!-- Generator: Sketch 54.1 (76490) - https://sketchapp.com -->
    <title>Group 9</title>
    <desc>Created with Sketch.</desc>
    <defs>
        <rect id="path-1" x="44" y="0" width="499" height="438" rx="21"></rect>
        <filter x="-5.4%" y="-3.4%" width="110.8%" height="112.3%" filterUnits="objectBoundingBox" id="filter-2">
            <feMorphology radius="5.5" operator="erode" in="SourceAlpha" result="shadowSpreadOuter1"></feMorphology>
            <feOffset dx="0" dy="12" in="shadowSpreadOuter1" result="shadowOffsetOuter1"></feOffset>
            <feGaussianBlur stdDeviation="12.5" in="shadowOffsetOuter1" result="shadowBlurOuter1"></feGaussianBlur>
            <feColorMatrix values="0 0 0 0 0.717421011   0 0 0 0 0.82813245   0 0 0 0 0.911166029  0 0 0 1 0" type="matrix" in="shadowBlurOuter1"></feColorMatrix>
        </filter>
        <rect id="path-3" x="0" y="26" width="252" height="181" rx="21"></rect>
        <filter x="-10.7%" y="-8.3%" width="121.4%" height="129.8%" filterUnits="objectBoundingBox" id="filter-4">
            <feMorphology radius="5.5" operator="erode" in="SourceAlpha" result="shadowSpreadOuter1"></feMorphology>
            <feOffset dx="0" dy="12" in="shadowSpreadOuter1" result="shadowOffsetOuter1"></feOffset>
            <feGaussianBlur stdDeviation="12.5" in="shadowOffsetOuter1" result="shadowBlurOuter1"></feGaussianBlur>
            <feColorMatrix values="0 0 0 0 0.717421011   0 0 0 0 0.82813245   0 0 0 0 0.911166029  0 0 0 1 0" type="matrix" in="shadowBlurOuter1"></feColorMatrix>
        </filter>
    </defs>
    <g id="Page-1" stroke="none" stroke-width="1" fill="none" fill-rule="evenodd">
        <g id="Desktop-HD-Copy-2" transform="translate(-124.000000, -955.000000)">
            <g id="Group-9" transform="translate(138.000000, 957.000000)">
                <g id="Rectangle-12">
                    <use fill="black" fill-opacity="1" filter="url(#filter-2)" xlink:href="#path-1"></use>
                    <use fill="#FFFFFF" fill-rule="evenodd" xlink:href="#path-1"></use>
                </g>
                <circle id="Oval-6" fill="#F0EDFE" cx="99.5" cy="69.5" r="15.5"></circle>
                <circle id="Oval-6-Copy" fill="#EDF7FE" cx="510.5" cy="208.5" r="15.5"></circle>
                <rect id="Rectangle-3" fill="#E3EAF2" x="128" y="47" width="239" height="45" rx="7"></rect>
                <circle id="Oval-6-Copy-2" fill="#EDF7FE" cx="99.5" cy="371.5" r="15.5"></circle>
                <rect id="Rectangle-3-Copy-4" fill="#E3EAF2" x="128" y="349" width="239" height="45" rx="7"></rect>
                <rect id="Rectangle-3-Copy" fill="#E3EAF2" x="128" y="99" width="270" height="67" rx="7"></rect>
                <rect id="Rectangle-3-Copy-2" fill="#3D95F4" x="198" y="186" width="287" height="88" rx="7"></rect>
                <rect id="Rectangle-3-Copy-3" fill="#3D95F4" x="198" y="281" width="287" height="45" rx="7"></rect>
                <g id="Rectangle-12">
                    <use fill="black" fill-opacity="1" filter="url(#filter-4)" xlink:href="#path-3"></use>
                    <use fill="#FFFFFF" fill-rule="evenodd" xlink:href="#path-3"></use>
                </g>
                <rect id="Rectangle-13" fill="#F0F0F0" x="25" y="68" width="202" height="10" rx="5"></rect>
                <rect id="Rectangle-13-Copy" fill="#F0F0F0" x="25" y="86" width="108" height="10" rx="5"></rect>
                <rect id="Rectangle-14" fill="#3D95F4" x="25" y="111" width="196" height="49" rx="8"></rect>
                <path d="M55.28,143.24 C53.8399928,143.24 52.7333372,142.986669 51.96,142.48 C51.1866628,141.973331 50.6566681,141.223338 50.37,140.23 C50.0833319,139.236662 49.94,137.913342 49.94,136.26 C49.94,134.446658 50.0966651,133.033338 50.41,132.02 C50.7233349,131.006662 51.246663,130.276669 51.98,129.83 C52.713337,129.383331 53.7399934,129.16 55.06,129.16 C56.2733394,129.16 57.6266592,129.339998 59.12,129.7 L59.04,131.9 C57.7199934,131.699999 56.6466708,131.6 55.82,131.6 C54.9799958,131.6 54.3466688,131.733332 53.92,132 C53.4933312,132.266668 53.1966675,132.70333 53.03,133.31 C52.8633325,133.91667 52.78,134.773328 52.78,135.88 L52.78,136.62 C52.8066668,137.766672 52.8899993,138.623331 53.03,139.19 C53.1700007,139.756669 53.4466646,140.166665 53.86,140.42 C54.2733354,140.673335 54.9066624,140.8 55.76,140.8 C56.6666712,140.8 57.7599936,140.706668 59.04,140.52 L59.1,142.78 C57.6466594,143.086668 56.3733388,143.24 55.28,143.24 Z M64.22,143.24 C63.3666624,143.24 62.6966691,143.066668 62.21,142.72 C61.7233309,142.373332 61.380001,141.840004 61.18,141.12 C60.979999,140.399996 60.88,139.440006 60.88,138.24 L60.88,133 L63.56,133 L63.56,138.28 C63.56,139.000004 63.593333,139.536665 63.66,139.89 C63.726667,140.243335 63.8633323,140.489999 64.07,140.63 C64.2766677,140.770001 64.5933312,140.84 65.02,140.84 C65.3266682,140.84 65.6033321,140.813334 65.85,140.76 C66.0966679,140.706666 66.4399978,140.613334 66.88,140.48 L66.88,133 L69.56,133 L69.56,143 L66.9,143 L66.9,142.44 C66.3399972,142.746668 65.8633353,142.956666 65.47,143.07 C65.0766647,143.183334 64.6600022,143.24 64.22,143.24 Z M75.54,143.24 C74.6599956,143.24 73.586673,143.120001 72.32,142.88 L71.68,142.76 L71.76,140.52 C73.3733414,140.733334 74.546663,140.84 75.28,140.84 C75.7733358,140.84 76.1633319,140.786667 76.45,140.68 C76.7366681,140.573333 76.88,140.373335 76.88,140.08 C76.88,139.813332 76.7433347,139.620001 76.47,139.5 C76.1966653,139.379999 75.7400032,139.266667 75.1,139.16 C74.8599988,139.133333 74.6933338,139.106667 74.6,139.08 C73.93333,138.959999 73.3866688,138.810001 72.96,138.63 C72.5333312,138.449999 72.186668,138.163335 71.92,137.77 C71.653332,137.376665 71.52,136.82667 71.52,136.12 C71.52,134.986661 71.8666632,134.146669 72.56,133.6 C73.2533368,133.053331 74.2066606,132.78 75.42,132.78 C76.1400036,132.78 77.199993,132.906665 78.6,133.16 L79.26,133.28 L79.22,135.5 C77.6066586,135.286666 76.4133372,135.18 75.64,135.18 C75.1866644,135.18 74.8300013,135.226666 74.57,135.32 C74.3099987,135.413334 74.18,135.593332 74.18,135.86 C74.18,136.140001 74.313332,136.336666 74.58,136.45 C74.846668,136.563334 75.279997,136.673333 75.88,136.78 L76.58,136.9 C77.646672,137.113334 78.4066644,137.429998 78.86,137.85 C79.3133356,138.270002 79.54,138.946662 79.54,139.88 C79.54,141.026672 79.2133366,141.873331 78.56,142.42 C77.9066634,142.966669 76.9000068,143.24 75.54,143.24 Z M84.88,143.24 C84.1066628,143.24 83.5066688,143.120001 83.08,142.88 C82.6533312,142.639999 82.3466676,142.246669 82.16,141.7 C81.9733324,141.153331 81.88,140.400005 81.88,139.44 L81.88,135.28 L80.7,135.28 L80.7,133 L81.88,133 L81.88,130.22 L84.56,130.22 L84.56,133 L87.02,133 L87.02,135.28 L84.56,135.28 L84.56,139.38 C84.56,139.900003 84.6066662,140.276666 84.7,140.51 C84.7933338,140.743335 85.0266648,140.853333 85.4,140.84 L86.92,140.8 L87.04,142.94 C86.506664,143.060001 86.0900015,143.14 85.79,143.18 C85.4899985,143.22 85.1866682,143.24 84.88,143.24 Z M92.84,143.24 C91.3333258,143.24 90.1900039,142.783338 89.41,141.87 C88.6299961,140.956662 88.24,139.660008 88.24,137.98 C88.24,136.313325 88.6299961,135.026671 89.41,134.12 C90.1900039,133.213329 91.3333258,132.76 92.84,132.76 C94.3466742,132.76 95.4899961,133.213329 96.27,134.12 C97.0500039,135.026671 97.44,136.313325 97.44,137.98 C97.44,139.660008 97.0500039,140.956662 96.27,141.87 C95.4899961,142.783338 94.3466742,143.24 92.84,143.24 Z M92.84,140.96 C93.4800032,140.96 93.9533318,140.726669 94.26,140.26 C94.5666682,139.793331 94.72,139.033339 94.72,137.98 C94.72,136.926661 94.5666682,136.173336 94.26,135.72 C93.9533318,135.266664 93.4800032,135.04 92.84,135.04 C92.1999968,135.04 91.7266682,135.266664 91.42,135.72 C91.1133318,136.173336 90.96,136.926661 90.96,137.98 C90.96,139.033339 91.1133318,139.793331 91.42,140.26 C91.7266682,140.726669 92.1999968,140.96 92.84,140.96 Z M99.4,133 L102.06,133 L102.06,133.56 C102.553336,133.279999 102.983332,133.076667 103.35,132.95 C103.716668,132.823333 104.099998,132.76 104.5,132.76 C104.966669,132.76 105.416664,132.836666 105.85,132.99 C106.283336,133.143334 106.639999,133.379998 106.92,133.7 C107.54667,133.379998 108.136664,133.143334 108.69,132.99 C109.243336,132.836666 109.806664,132.76 110.38,132.76 C111.620006,132.76 112.499997,133.139996 113.02,133.9 C113.540003,134.660004 113.8,135.886658 113.8,137.58 L113.8,143 L111.12,143 L111.12,137.66 C111.12,136.766662 111.020001,136.126669 110.82,135.74 C110.619999,135.353331 110.246669,135.16 109.7,135.16 C109.313331,135.16 108.800003,135.253332 108.16,135.44 L107.86,135.54 C107.913334,136.433338 107.94,137.19333 107.94,137.82 L107.94,143 L105.26,143 L105.26,137.86 C105.26,137.139996 105.223334,136.593335 105.15,136.22 C105.076666,135.846665 104.936668,135.576667 104.73,135.41 C104.523332,135.243333 104.213335,135.16 103.8,135.16 C103.373331,135.16 102.880003,135.253332 102.32,135.44 L102.08,135.52 L102.08,143 L99.4,143 L99.4,133 Z M116.18,133 L118.86,133 L118.86,143 L116.18,143 L116.18,133 Z M116.18,129.02 L118.86,129.02 L118.86,131.72 L116.18,131.72 L116.18,129.02 Z M120.92,140.6 L125.12,135.4 L120.92,135.4 L120.92,133 L128.34,133 L128.34,135.4 L124.14,140.6 L128.34,140.6 L128.34,143 L120.92,143 L120.92,140.6 Z M134.34,143.24 C132.779992,143.24 131.653337,142.846671 130.96,142.06 C130.266663,141.273329 129.92,140.000009 129.92,138.24 C129.92,136.399991 130.28333,135.026671 131.01,134.12 C131.73667,133.213329 132.866659,132.76 134.4,132.76 C135.81334,132.76 136.88333,133.136663 137.61,133.89 C138.33667,134.643337 138.7,135.773326 138.7,137.28 L138.5,139.14 L132.62,139.14 C132.646667,139.606669 132.729999,139.963332 132.87,140.21 C133.010001,140.456668 133.236665,140.629999 133.55,140.73 C133.863335,140.83 134.299997,140.88 134.86,140.88 C135.300002,140.88 135.826664,140.866667 136.44,140.84 C137.053336,140.813333 137.499999,140.786667 137.78,140.76 L138.34,140.7 L138.38,142.68 C136.873326,143.053335 135.526673,143.24 134.34,143.24 Z M136.06,137.1 C136.06,136.299996 135.936668,135.743335 135.69,135.43 C135.443332,135.116665 135.00667,134.96 134.38,134.96 C133.739997,134.96 133.286668,135.123332 133.02,135.45 C132.753332,135.776668 132.613333,136.326663 132.6,137.1 L136.06,137.1 Z M147.68,131.84 L144.04,131.84 L144.04,129.4 L154.04,129.4 L154.04,131.84 L150.44,131.84 L150.44,143 L147.68,143 L147.68,131.84 Z M158.08,143.24 C156.519992,143.24 155.393337,142.846671 154.7,142.06 C154.006663,141.273329 153.66,140.000009 153.66,138.24 C153.66,136.399991 154.02333,135.026671 154.75,134.12 C155.47667,133.213329 156.606659,132.76 158.14,132.76 C159.55334,132.76 160.62333,133.136663 161.35,133.89 C162.07667,134.643337 162.44,135.773326 162.44,137.28 L162.24,139.14 L156.36,139.14 C156.386667,139.606669 156.469999,139.963332 156.61,140.21 C156.750001,140.456668 156.976665,140.629999 157.29,140.73 C157.603335,140.83 158.039997,140.88 158.6,140.88 C159.040002,140.88 159.566664,140.866667 160.18,140.84 C160.793336,140.813333 161.239999,140.786667 161.52,140.76 L162.08,140.7 L162.12,142.68 C160.613326,143.053335 159.266673,143.24 158.08,143.24 Z M159.8,137.1 C159.8,136.299996 159.676668,135.743335 159.43,135.43 C159.183332,135.116665 158.74667,134.96 158.12,134.96 C157.479997,134.96 157.026668,135.123332 156.76,135.45 C156.493332,135.776668 156.353333,136.326663 156.34,137.1 L159.8,137.1 Z M164.36,133 L167.02,133 L167.02,134.06 C168.166672,133.39333 169.233328,132.960001 170.22,132.76 L170.22,135.46 C169.219995,135.660001 168.293338,135.893332 167.44,136.16 L167.04,136.3 L167.04,143 L164.36,143 L164.36,133 Z M171.8,133 L174.46,133 L174.46,133.56 C174.953336,133.279999 175.383331,133.076667 175.75,132.95 C176.116669,132.823333 176.499998,132.76 176.9,132.76 C177.366669,132.76 177.816665,132.836666 178.25,132.99 C178.683335,133.143334 179.039999,133.379998 179.32,133.7 C179.94667,133.379998 180.536664,133.143334 181.09,132.99 C181.643336,132.836666 182.206664,132.76 182.78,132.76 C184.020006,132.76 184.899997,133.139996 185.42,133.9 C185.940003,134.660004 186.2,135.886658 186.2,137.58 L186.2,143 L183.52,143 L183.52,137.66 C183.52,136.766662 183.420001,136.126669 183.22,135.74 C183.019999,135.353331 182.646669,135.16 182.1,135.16 C181.713331,135.16 181.200003,135.253332 180.56,135.44 L180.26,135.54 C180.313334,136.433338 180.34,137.19333 180.34,137.82 L180.34,143 L177.66,143 L177.66,137.86 C177.66,137.139996 177.623334,136.593335 177.55,136.22 C177.476666,135.846665 177.336668,135.576667 177.13,135.41 C176.923332,135.243333 176.613335,135.16 176.2,135.16 C175.773331,135.16 175.280003,135.253332 174.72,135.44 L174.48,135.52 L174.48,143 L171.8,143 L171.8,133 Z M192.08,143.24 C191.199996,143.24 190.126673,143.120001 188.86,142.88 L188.22,142.76 L188.3,140.52 C189.913341,140.733334 191.086663,140.84 191.82,140.84 C192.313336,140.84 192.703332,140.786667 192.99,140.68 C193.276668,140.573333 193.42,140.373335 193.42,140.08 C193.42,139.813332 193.283335,139.620001 193.01,139.5 C192.736665,139.379999 192.280003,139.266667 191.64,139.16 C191.399999,139.133333 191.233334,139.106667 191.14,139.08 C190.47333,138.959999 189.926669,138.810001 189.5,138.63 C189.073331,138.449999 188.726668,138.163335 188.46,137.77 C188.193332,137.376665 188.06,136.82667 188.06,136.12 C188.06,134.986661 188.406663,134.146669 189.1,133.6 C189.793337,133.053331 190.746661,132.78 191.96,132.78 C192.680004,132.78 193.739993,132.906665 195.14,133.16 L195.8,133.28 L195.76,135.5 C194.146659,135.286666 192.953337,135.18 192.18,135.18 C191.726664,135.18 191.370001,135.226666 191.11,135.32 C190.849999,135.413334 190.72,135.593332 190.72,135.86 C190.72,136.140001 190.853332,136.336666 191.12,136.45 C191.386668,136.563334 191.819997,136.673333 192.42,136.78 L193.12,136.9 C194.186672,137.113334 194.946664,137.429998 195.4,137.85 C195.853336,138.270002 196.08,138.946662 196.08,139.88 C196.08,141.026672 195.753337,141.873331 195.1,142.42 C194.446663,142.966669 193.440007,143.24 192.08,143.24 Z" id="CustomizeTerms" fill="#FFFFFF" fill-rule="nonzero"></path>
            </g>
        </g>
    </g>
</svg>